<svg width="141" height="141" viewBox="0 0 141 141" fill="none" xmlns="http://www.w3.org/2000/svg">
<circle cx="70.5" cy="70.5" r="70.5" fill="#B62530"/>
<path d="M64.0175 31.7617L29.4317 89.5C28.7186 90.7349 28.3413 92.135 28.3373 93.5609C28.3333 94.9869 28.7028 96.3891 29.4089 97.628C30.1151 98.8668 31.1333 99.8992 32.3623 100.622C33.5913 101.346 34.9883 101.734 36.4142 101.75H105.586C107.012 101.734 108.409 101.346 109.638 100.622C110.867 99.8992 111.885 98.8668 112.591 97.628C113.297 96.3891 113.667 94.9869 113.663 93.5609C113.659 92.135 113.281 90.7349 112.568 89.5L77.9825 31.7617C77.2546 30.5616 76.2296 29.5694 75.0065 28.8808C73.7835 28.1922 72.4036 27.8305 71 27.8305C69.5964 27.8305 68.2165 28.1922 66.9935 28.8808C65.7704 29.5694 64.7454 30.5616 64.0175 31.7617Z" stroke="white" stroke-width="8" stroke-linecap="round" stroke-linejoin="round"/>
<path d="M71 52.75V69.0833" stroke="white" stroke-width="8" stroke-linecap="round" stroke-linejoin="round"/>
<path d="M71 85.4167H71.0384" stroke="white" stroke-width="8" stroke-linecap="round" stroke-linejoin="round"/>
</svg>
