<svg width="141" height="141" viewBox="0 0 141 141" fill="none" xmlns="http://www.w3.org/2000/svg">
<circle cx="70.5" cy="70.5" r="70.5" fill="#5BC552"/>
<g clip-path="url(#clip0_1_9)">
<path d="M53.8487 60.9456L68.9277 27C71.9271 27 74.8036 28.1921 76.9245 30.3141C79.0454 32.4362 80.2369 35.3142 80.2369 38.3152V53.4021H101.574C102.666 53.3897 103.749 53.6152 104.746 54.063C105.743 54.5108 106.631 55.1701 107.348 55.9952C108.065 56.8204 108.595 57.7917 108.9 58.8419C109.204 59.8921 109.277 60.996 109.113 62.0771L103.911 96.0227C103.638 97.8214 102.725 99.461 101.34 100.639C99.9541 101.818 98.1896 102.455 96.3714 102.435H53.8487M53.8487 60.9456V102.435M53.8487 60.9456H42.5395C40.5399 60.9456 38.6222 61.7403 37.2083 63.155C35.7943 64.5697 35 66.4884 35 68.489V94.8912C35 96.8918 35.7943 98.8105 37.2083 100.225C38.6222 101.64 40.5399 102.435 42.5395 102.435H53.8487" stroke="white" stroke-width="8" stroke-linecap="round" stroke-linejoin="round"/>
</g>
<defs>
<clipPath id="clip0_1_9">
<rect width="81" height="81" fill="white" transform="translate(28 25)"/>
</clipPath>
</defs>
</svg>
